<svg width="61" height="60" viewBox="0 0 61 60" fill="none" xmlns="http://www.w3.org/2000/svg">
<circle cx="30.5" cy="30" r="30" fill="#C60000"/>
<path d="M17.06 21.18C17.42 21.18 17.66 20.94 17.66 20.58V17.34C17.66 17.04 17.84 16.8 18.14 16.8H21.38C21.74 16.8 21.98 16.56 21.98 16.2C21.98 15.84 21.74 15.6 21.38 15.6H18.14C17.18 15.6 16.46 16.38 16.46 17.34V20.64C16.46 20.94 16.7 21.18 17.06 21.18ZM21.38 39.12H18.14C17.84 39.12 17.6 38.88 17.6 38.58V35.34C17.6 34.98 17.36 34.74 17 34.74C16.64 34.74 16.4 34.98 16.4 35.34V38.58C16.4 39.54 17.18 40.32 18.14 40.32H21.38C21.74 40.32 21.98 40.08 21.98 39.72C21.98 39.36 21.74 39.12 21.38 39.12ZM43.94 34.74C43.58 34.74 43.34 34.98 43.34 35.34V38.58C43.34 38.88 43.1 39.12 42.8 39.12H39.56C39.2 39.12 38.96 39.36 38.96 39.72C38.96 40.08 39.2 40.32 39.56 40.32H42.8C43.76 40.32 44.54 39.54 44.54 38.58V35.34C44.54 34.98 44.3 34.74 43.94 34.74ZM42.86 15.6H39.62C39.26 15.6 39.02 15.84 39.02 16.2C39.02 16.56 39.26 16.8 39.62 16.8H42.86C43.16 16.8 43.4 17.04 43.4 17.34V20.64C43.4 21 43.64 21.24 44 21.24C44.36 21.24 44.6 21 44.6 20.64V17.34C44.54 16.38 43.82 15.6 42.86 15.6ZM26.06 38.52C27.44 39.72 29 40.32 30.5 40.32C32.06 40.32 33.56 39.72 34.94 38.52C37.76 36.12 39.62 31.74 39.62 27.54C39.62 25.26 39.08 23.4 37.94 21.9C37.94 25.98 34.58 29.34 30.5 29.34C26.42 29.34 23.06 25.98 23.06 21.9C21.98 23.4 21.38 25.32 21.38 27.54C21.38 31.68 23.24 36.06 26.06 38.52Z" fill="white"/>
<path d="M35.12 39.84C33.68 40.92 32.06 41.46 30.5 41.46C28.94 41.46 27.32 40.92 25.88 39.78C25.88 41.04 25.16 42.3 23.84 43.26C23.66 43.44 23.54 43.68 23.6 43.92C23.66 44.16 23.9 44.34 24.14 44.34H36.8C37.04 44.34 37.28 44.16 37.34 43.92C37.4 43.68 37.34 43.38 37.1 43.26C35.9 42.36 35.18 41.1 35.12 39.84ZM30.5 28.14C33.98 28.14 36.74 25.32 36.74 21.9C36.74 18.42 33.92 15.6 30.5 15.6C27.08 15.6 24.26 18.42 24.26 21.84C24.26 25.32 27.02 28.14 30.5 28.14ZM27.44 21.36C27.68 21.12 28.04 21.12 28.28 21.36L29.66 22.74L32.66 19.74C32.9 19.5 33.26 19.5 33.5 19.74C33.74 19.98 33.74 20.34 33.5 20.58L30.08 24C29.96 24.12 29.84 24.18 29.66 24.18C29.48 24.18 29.36 24.12 29.24 24L27.44 22.2C27.2 21.96 27.2 21.6 27.44 21.36Z" fill="white"/>
</svg>
