<svg width="60" height="60" viewBox="0 0 60 60" fill="none" xmlns="http://www.w3.org/2000/svg">
<path d="M58.5 30C58.5 45.7399 45.7399 58.5 30 58.5C14.2617 58.5 1.5 45.7399 1.5 30C1.5 14.2618 14.2618 1.5 30 1.5C45.7399 1.5 58.5 14.2617 58.5 30Z" stroke="#C60000" stroke-width="3"/>
<path d="M19.1667 30C21.4679 30 23.3333 27.3883 23.3333 24.1667C23.3333 20.945 21.4679 18.3333 19.1667 18.3333C16.8655 18.3333 15 20.945 15 24.1667C15 27.3883 16.8655 30 19.1667 30Z" fill="#C60000"/>
<path d="M40.8332 30C43.1344 30 44.9998 27.3883 44.9998 24.1667C44.9998 20.945 43.1344 18.3333 40.8332 18.3333C38.532 18.3333 36.6665 20.945 36.6665 24.1667C36.6665 27.3883 38.532 30 40.8332 30Z" fill="#C60000"/>
<path d="M14.4416 46.4517C14.7383 46.72 15.1816 46.7367 15.4999 46.5C15.5649 46.4517 22.0366 41.6667 29.9999 41.6667C37.9433 41.6667 44.4366 46.4517 44.4999 46.5C44.8183 46.7367 45.2616 46.7167 45.5583 46.4517C45.8533 46.185 45.9199 45.745 45.7149 45.405C45.4999 45.0483 40.3533 36.6667 29.9999 36.6667C19.6466 36.6667 14.4983 45.0467 14.2849 45.405C14.0799 45.7467 14.1449 46.185 14.4416 46.4517Z" fill="#C60000"/>
</svg>
