<svg width="66" height="73" viewBox="0 0 66 73" fill="none" xmlns="http://www.w3.org/2000/svg">
<path d="M55.1946 46.1777C51.4115 49.9608 46.5916 52.5371 41.3444 53.5808C36.0971 54.6246 30.6582 54.0889 25.7154 52.0415C20.7726 49.9941 16.5479 46.527 13.5756 42.0786C10.6033 37.6302 9.01683 32.4003 9.01683 27.0503C9.01683 21.7002 10.6033 16.4703 13.5756 12.0219C16.5479 7.57354 20.7726 4.10643 25.7154 2.05906C30.6582 0.0116886 36.0971 -0.523996 41.3444 0.519747C46.5916 1.56349 51.4115 4.13978 55.1946 7.92284L47.1431 15.9743C44.9525 13.7837 42.1615 12.2919 39.123 11.6875C36.0845 11.0831 32.935 11.3933 30.0729 12.5788C27.2107 13.7644 24.7643 15.772 23.0432 18.3479C21.322 20.9238 20.4033 23.9523 20.4033 27.0503C20.4033 30.1483 21.322 33.1767 23.0432 35.7526C24.7643 38.3285 27.2107 40.3362 30.0728 41.5217C32.935 42.7073 36.0845 43.0175 39.123 42.4131C42.1615 41.8087 44.9525 40.3169 47.1431 38.1263L55.1946 46.1777Z" fill="url(#paint0_radial_340_791)"/>
<path d="M38.3213 16.2302C38.3213 17.4751 37.312 18.4844 36.0671 18.4844C34.8221 18.4844 33.8129 17.4751 33.8129 16.2302C33.8129 14.9852 34.8221 13.976 36.0671 13.976C37.312 13.976 38.3213 14.9852 38.3213 16.2302Z" fill="url(#paint1_radial_340_791)"/>
<path d="M33.2116 27.0503V20.2878H38.4713V27.0503H43.7311V33.8129H38.4713V40.5755H33.2116V33.8129H27.9518V27.0503H33.2116Z" fill="url(#paint2_radial_340_791)"/>
<path d="M18.4946 67.8811H21.1275C21.0746 68.744 20.8369 69.5101 20.4142 70.1793C19.9974 70.8485 19.4133 71.371 18.6619 71.7467C17.9164 72.1224 17.0183 72.3102 15.9675 72.3102C15.1456 72.3102 14.4089 72.1693 13.7573 71.8876C13.1057 71.5999 12.548 71.189 12.0843 70.6548C11.6264 70.1206 11.2771 69.4749 11.0364 68.7176C10.7958 67.9603 10.6754 67.1121 10.6754 66.1728V65.2835C10.6754 64.3442 10.7987 63.496 11.0452 62.7387C11.2977 61.9756 11.6558 61.3269 12.1195 60.7927C12.5891 60.2585 13.1497 59.8476 13.8013 59.5599C14.4529 59.2723 15.1809 59.1285 15.9851 59.1285C17.0535 59.1285 17.9546 59.3222 18.6884 59.7096C19.428 60.0971 20.0004 60.6313 20.4054 61.3122C20.8163 61.9932 21.0629 62.7681 21.1451 63.6369H18.5034C18.4741 63.1203 18.3714 62.6829 18.1953 62.3249C18.0191 61.9609 17.7521 61.6879 17.394 61.5059C17.0417 61.3181 16.5721 61.2242 15.9851 61.2242C15.5448 61.2242 15.1603 61.3064 14.8316 61.4707C14.5028 61.6351 14.2269 61.8846 14.0039 62.2192C13.7808 62.5538 13.6135 62.9765 13.502 63.4872C13.3963 63.992 13.3435 64.5849 13.3435 65.2659V66.1728C13.3435 66.8362 13.3934 67.4203 13.4932 67.9251C13.5929 68.4241 13.7456 68.8467 13.951 69.1931C14.1624 69.5336 14.4324 69.7919 14.7611 69.968C15.0957 70.1382 15.4979 70.2233 15.9675 70.2233C16.5193 70.2233 16.9742 70.1353 17.3323 69.9592C17.6904 69.7831 17.9634 69.5218 18.1512 69.1755C18.3449 68.8291 18.4594 68.3977 18.4946 67.8811Z" fill="#282828"/>
<path d="M31.104 70.0736V72.1341H24.6496V70.0736H31.104ZM25.5038 59.3134V72.1341H22.8621V59.3134H25.5038Z" fill="#282828"/>
<path d="M35.4275 59.3134V72.1341H32.7947V59.3134H35.4275Z" fill="#282828"/>
<path d="M48.3363 59.3134V72.1341H45.6946L40.5435 63.54V72.1341H37.9018V59.3134H40.5435L45.7034 67.9163V59.3134H48.3363Z" fill="#282828"/>
<path d="M53.4434 59.3134V72.1341H50.8106V59.3134H53.4434Z" fill="#282828"/>
<path d="M63.3495 67.8811H65.9824C65.9295 68.744 65.6918 69.5101 65.2691 70.1793C64.8523 70.8485 64.2682 71.371 63.5168 71.7467C62.7713 72.1224 61.8732 72.3102 60.8224 72.3102C60.0005 72.3102 59.2638 72.1693 58.6122 71.8876C57.9606 71.5999 57.4029 71.189 56.9392 70.6548C56.4813 70.1206 56.132 69.4749 55.8913 68.7176C55.6506 67.9603 55.5303 67.1121 55.5303 66.1728V65.2835C55.5303 64.3442 55.6536 63.496 55.9001 62.7387C56.1526 61.9756 56.5106 61.3269 56.9744 60.7927C57.444 60.2585 58.0046 59.8476 58.6562 59.5599C59.3078 59.2723 60.0358 59.1285 60.84 59.1285C61.9084 59.1285 62.8095 59.3222 63.5433 59.7096C64.2829 60.0971 64.8553 60.6313 65.2603 61.3122C65.6712 61.9932 65.9178 62.7681 66 63.6369H63.3583C63.329 63.1203 63.2263 62.6829 63.0501 62.3249C62.874 61.9609 62.6069 61.6879 62.2489 61.5059C61.8966 61.3181 61.427 61.2242 60.84 61.2242C60.3997 61.2242 60.0152 61.3064 59.6865 61.4707C59.3577 61.6351 59.0818 61.8846 58.8588 62.2192C58.6357 62.5538 58.4684 62.9765 58.3568 63.4872C58.2512 63.992 58.1984 64.5849 58.1984 65.2659V66.1728C58.1984 66.8362 58.2483 67.4203 58.348 67.9251C58.4478 68.4241 58.6005 68.8467 58.8059 69.1931C59.0173 69.5336 59.2873 69.7919 59.616 69.968C59.9506 70.1382 60.3527 70.2233 60.8224 70.2233C61.3742 70.2233 61.8291 70.1353 62.1872 69.9592C62.5453 69.7831 62.8183 69.5218 63.0061 69.1755C63.1998 68.8291 63.3143 68.3977 63.3495 67.8811Z" fill="#282828"/>
<path d="M3.00559 65.453V60.8903L6.52939 67.6529V58.609H9.01677V72.1341H6.52939L3.00559 65.453Z" fill="url(#paint3_radial_340_791)"/>
<path d="M0 61.5527V58.7681H2.3225V61.5527H0Z" fill="url(#paint4_radial_340_791)"/>
<path d="M0 71.975V62.2687H2.3225V71.975H0Z" fill="url(#paint5_radial_340_791)"/>
<defs>
<radialGradient id="paint0_radial_340_791" cx="0" cy="0" r="1" gradientUnits="userSpaceOnUse" gradientTransform="translate(42.585 19.8534) rotate(154.717) scale(69.7275 162.967)">
<stop stop-color="#C60000"/>
<stop offset="1" stop-color="#620000"/>
</radialGradient>
<radialGradient id="paint1_radial_340_791" cx="0" cy="0" r="1" gradientUnits="userSpaceOnUse" gradientTransform="translate(35.4673 15.2071) rotate(68.0423) scale(6.63689 13.9298)">
<stop stop-color="#C60000"/>
<stop offset="1" stop-color="#620000"/>
</radialGradient>
<radialGradient id="paint2_radial_340_791" cx="0" cy="0" r="1" gradientUnits="userSpaceOnUse" gradientTransform="translate(33.7424 25.8277) rotate(72.5899) scale(29.0294 50.1593)">
<stop stop-color="#C60000"/>
<stop offset="1" stop-color="#620000"/>
</radialGradient>
<radialGradient id="paint3_radial_340_791" cx="0" cy="0" r="1" gradientUnits="userSpaceOnUse" gradientTransform="translate(3.30891 62.3023) rotate(74.9557) scale(19.1217 29.009)">
<stop stop-color="#C60000"/>
<stop offset="1" stop-color="#620000"/>
</radialGradient>
<radialGradient id="paint4_radial_340_791" cx="0" cy="0" r="1" gradientUnits="userSpaceOnUse" gradientTransform="translate(3.30891 62.3023) rotate(74.9557) scale(19.1217 29.009)">
<stop stop-color="#C60000"/>
<stop offset="1" stop-color="#620000"/>
</radialGradient>
<radialGradient id="paint5_radial_340_791" cx="0" cy="0" r="1" gradientUnits="userSpaceOnUse" gradientTransform="translate(3.30891 62.3023) rotate(74.9557) scale(19.1217 29.009)">
<stop stop-color="#C60000"/>
<stop offset="1" stop-color="#620000"/>
</radialGradient>
</defs>
</svg>
